<?xml version="1.0" encoding="utf-8"?>
<svg viewBox="231.545 205.292 40.283 89.941" xmlns="http://www.w3.org/2000/svg">
  <path d="M 239.602 237.958 L 250.442 205.292 L 262.746 205.292 L 252.346 236.786 L 265.969 236.64 L 264.211 245.429 L 258.791 245.282 L 249.27 245.575 L 248.537 248.065 Q 246.487 255.536 245.461 261.322 Q 244.436 267.108 244.436 271.503 Q 244.436 284.101 248.83 284.101 Q 251.174 284.101 256.74 280.292 Q 263.625 275.604 271.828 267.108 L 271.828 279.56 Q 262.16 288.495 253.811 292.45 Q 247.951 295.233 243.703 295.233 Q 238.137 295.233 234.841 289.447 Q 231.545 283.661 231.545 274.14 Q 231.545 268.134 232.278 264.032 Q 233.01 259.931 235.793 249.97 L 236.965 245.575 L 232.424 246.308 L 233.01 240.448 Q 233.156 239.276 235.134 238.837 Q 237.112 238.397 239.602 237.958 Z" style="fill: rgb(255, 255, 255);" transform="matrix(1, 0, 0, 1, 0, -1.4210854715202004e-14)"/>
</svg>