<?xml version="1.0" encoding="utf-8"?>
<svg viewBox="95.63 194.351 312.113 129.785" xmlns="http://www.w3.org/2000/svg">
  <path d="M 103.687 238.003 L 114.527 205.337 L 126.831 205.337 L 116.431 236.831 L 130.054 236.685 L 128.296 245.474 L 122.876 245.327 L 113.355 245.62 L 112.622 248.11 Q 110.572 255.581 109.546 261.367 Q 108.521 267.153 108.521 271.548 Q 108.521 284.146 112.915 284.146 Q 115.259 284.146 120.825 280.337 Q 127.71 275.649 135.913 267.153 L 135.913 279.605 Q 126.245 288.54 117.896 292.495 Q 112.036 295.278 107.788 295.278 Q 102.222 295.278 98.926 289.492 Q 95.63 283.706 95.63 274.185 Q 95.63 268.179 96.363 264.077 Q 97.095 259.976 99.878 250.015 L 101.05 245.62 L 96.509 246.353 L 97.095 240.493 Q 97.241 239.321 99.219 238.882 Q 101.197 238.442 103.687 238.003 Z M 208.447 267.153 L 208.447 279.605 Q 191.455 295.278 181.787 295.278 Q 177.246 295.278 175.708 291.836 Q 174.17 288.394 174.17 283.706 L 174.17 281.216 Q 167.139 288.98 162.525 292.056 Q 157.91 295.132 153.516 295.132 Q 146.924 295.132 142.017 288.906 Q 137.11 282.681 137.11 274.185 Q 137.11 258.364 147.07 246.792 Q 156.299 236.099 167.139 236.099 Q 171.533 236.099 175.122 238.369 Q 178.711 240.64 181.934 245.474 L 184.424 236.245 L 196.582 236.245 L 188.965 267.007 Q 187.94 270.669 187.207 274.844 Q 186.475 279.019 186.475 280.63 Q 186.475 283.413 188.233 283.413 Q 190.576 283.413 195.923 279.092 Q 201.27 274.771 208.447 267.153 Z M 176.514 268.911 L 179.883 254.263 Q 174.903 248.403 173.291 247.085 Q 170.947 245.181 168.311 245.181 Q 161.279 245.181 155.64 253.164 Q 150 261.148 150 271.108 Q 150 277.407 152.051 281.289 Q 154.102 285.171 157.471 285.171 Q 161.865 285.171 168.018 278.726 Q 172.266 273.892 176.514 268.911 Z M 266.627 267.153 L 266.627 279.605 Q 257.985 287.808 249.269 291.69 Q 240.553 295.571 231.178 295.571 Q 218.581 295.571 213.161 287.515 Q 209.499 282.095 209.499 274.331 Q 209.499 259.683 219.166 247.964 Q 228.834 236.245 240.846 236.245 Q 246.852 236.245 250.368 239.321 Q 253.883 242.398 253.883 247.964 Q 253.883 252.944 251.686 257.339 Q 249.489 261.733 245.534 264.37 Q 242.897 263.198 241.139 262.1 Q 239.381 261.001 237.916 259.097 Q 241.579 254.116 242.457 252.432 Q 243.336 250.747 243.336 248.843 Q 243.336 245.034 239.235 245.034 Q 233.375 245.034 227.589 254.849 Q 221.803 264.663 221.803 273.892 Q 221.803 279.458 225.026 282.827 Q 228.249 286.196 233.375 286.196 Q 240.993 286.196 249.489 281.436 Q 257.985 276.675 266.627 267.153 Z M 339.163 267.153 L 339.163 279.605 Q 332.571 286.929 325.613 291.177 Q 318.655 295.425 313.235 295.425 Q 308.987 295.425 305.911 291.616 Q 302.835 287.808 302.835 282.241 Q 302.835 276.382 306.79 265.689 Q 310.745 254.995 310.745 250.747 Q 310.745 247.671 308.254 247.671 Q 304.153 247.671 297.122 253.237 Q 290.09 258.804 281.301 269.204 Q 280.862 273.013 280.715 275.21 Q 280.569 277.407 280.569 281.509 L 281.008 294.839 L 269.583 294.839 Q 269.436 293.96 268.63 284.658 Q 267.825 275.357 267.825 274.917 Q 267.825 263.491 272.073 245.327 Q 276.907 224.526 284.231 210.903 Q 293.02 194.351 302.981 194.351 Q 307.815 194.351 310.891 198.306 Q 313.967 202.261 313.967 208.413 Q 313.967 223.062 298.294 243.569 Q 305.032 239.321 308.035 238.076 Q 311.038 236.831 313.967 236.831 Q 317.922 236.831 320.12 240.054 Q 322.317 243.276 322.317 249.282 Q 322.317 255.142 318.508 265.835 Q 314.7 276.528 314.7 281.802 Q 314.7 285.024 317.044 285.024 Q 324.075 285.024 339.163 267.153 Z M 304.885 209.439 Q 304.885 204.019 301.956 204.019 Q 297.122 204.019 290.603 221.67 Q 284.085 239.321 282.034 254.556 Q 294.045 238.735 299.465 228.115 Q 304.885 217.495 304.885 209.439 Z M 347.977 240.64 L 349.589 236.392 L 362.04 236.392 Q 356.913 250.454 354.496 259.463 Q 352.079 268.472 352.079 274.624 Q 352.079 282.241 355.155 282.241 Q 360.575 282.241 368.192 274.478 Q 373.905 268.765 378.446 261.587 L 385.038 236.538 L 396.903 236.538 L 385.477 282.534 Q 389.725 280.19 398.807 273.599 Q 404.96 269.204 407.743 267.153 L 407.743 279.605 Q 405.692 280.776 401.884 283.413 Q 395.878 287.515 387.675 291.763 L 382.841 294.399 Q 379.765 308.608 374.784 315.933 Q 369.071 324.136 361.015 324.136 Q 355.448 324.136 351.054 321.206 Q 346.659 318.276 346.659 314.468 Q 346.659 305.239 368.632 290.005 L 371.708 287.954 L 374.052 279.458 Q 368.046 286.489 360.868 290.298 Q 354.423 293.667 348.417 293.667 Q 343.583 293.667 341.532 285.61 Q 340.214 280.337 340.214 273.599 Q 340.214 262.905 347.977 240.64 Z M 368.925 302.017 L 369.511 299.526 Q 356.474 308.755 356.474 312.857 Q 356.474 316.372 361.161 316.372 Q 363.944 316.372 365.629 313.296 Q 367.313 310.22 368.925 302.017 Z" style="fill: rgb(255, 255, 255);" transform="matrix(1, 0, 0, 1, 0, -1.4210854715202004e-14)"/>
</svg>